<svg xmlns="http://www.w3.org/2000/svg" version="1.1" xmlns:xlink="http://www.w3.org/1999/xlink" xmlns:svgjs="http://svgjs.dev/svgjs" width="100%" height="100%" viewBox="0 0 1000 600"><rect width="1000" height="600" x="0" y="0" fill="white"/><g><circle r="166.66666666666666" cx="303.00976053873694" cy="325.231969807778" fill="#fcedda" transform="matrix(0.9168049621176321,0,0,0.916804962117632,0,1.8257151756702115)"/><path d="M288.8727223661491 400.23196291658974L288.8727223661491 400.23196291658974Q279.75204929514484 400.23196291658974 269.64914989341713 397.70623806615777Q259.54625049168936 395.1805132157258 251.75859886952423 389.35731425500774Q243.900788223736 383.60427431791277 241.37506337330404 373.501374916185L241.37506337330404 373.501374916185Q240.8839502079423 371.95787639647665 240.8839502079423 368.9410383806829L240.8839502079423 368.9410383806829Q240.8839502079423 361.8549769947489 244.18142431822844 353.2955761127296Q247.40873940489143 344.66601620708707 252.46018910575532 341.1580650259316L252.46018910575532 341.1580650259316Q254.4948007908255 340.105679671585 255.75766321604146 341.1580650259316Q257.02052564125745 342.1402913566552 256.0382993105339 343.1926767110018L256.0382993105339 343.1926767110018Q255.54718614517213 344.66601620708707 254.4948007908255 346.98126398664965Q253.51257446010197 349.22635274258926 253.02146129474022 351.7520775930211L253.02146129474022 351.7520775930211Q251.4779627750318 364.8718150105426 258.56402416096586 374.9747144122704L258.56402416096586 374.9747144122704Q261.5808621767595 379.0439377824107 265.86056261776923 382.55188896356617Q270.1402630587789 386.12999916834474 274.20948642891926 388.6557240187766L274.20948642891926 388.6557240187766Q277.71743761007474 390.6201766802237 282.76888731093857 391.39192594007795Q287.82033701180245 392.1636751999321 292.87178671266634 392.1636751999321L292.87178671266634 392.1636751999321Q301.010233452947 392.1636751999321 308.5874080042428 390.12906351486197Q316.16458255553863 388.09445182979175 319.67253373669405 383.60427431791277L319.67253373669405 383.60427431791277Q326.26748195726634 375.4658275776321 326.26748195726634 365.36292817590436L326.26748195726634 365.36292817590436Q326.26748195726634 357.78575362460856 322.198258587126 349.22635274258926Q318.1290352169857 340.66695186056984 309.5696343349664 331.0551656242038L309.5696343349664 331.0551656242038Q304.0270714687407 324.9513305689934 298.9756217678769 317.93542820668245Q293.92417206701293 310.8493668207484 292.3806735473046 302.78107910409085L292.3806735473046 302.78107910409085Q291.88956038194283 301.2375805843824 291.60892428745035 299.69408206467403Q291.398447216581 298.22074256858866 291.398447216581 296.6772440488803L291.398447216581 296.6772440488803Q284.8034989960088 306.2890302852463 277.9980737045671 314.63795409639624Q271.19264841312554 322.9868779075463 266.14119871226166 329.0205539391337L266.14119871226166 329.0205539391337Q264.1065870271915 332.03739195492744 262.5630885074831 332.03739195492744L262.5630885074831 332.03739195492744Q261.5808621767595 332.03739195492744 261.5808621767595 330.0027802698572L261.5808621767595 330.0027802698572Q261.5808621767595 325.51260275797824 265.65008554689985 320.4611530571144L265.65008554689985 320.4611530571144Q269.64914989341713 315.9008165216122 274.700599594281 309.09539123017066Q279.75204929514484 302.2198069151059 282.76888731093857 298.22074256858866L282.76888731093857 298.22074256858866Q291.398447216581 285.59211831642904 295.67814765759067 278.2254208360025Q299.9578480986004 270.9288823791992 305.0092977994642 264.89520634761175L305.0092977994642 264.89520634761175Q310.5518606656899 258.30025812703946 318.90078447683993 254.23103475689913Q327.24970828798996 250.2319704103819 336.3703813589941 250.2319704103819L336.3703813589941 250.2319704103819Q346.96439392608363 250.2319704103819 355.8044309025954 253.52944452066802Q364.6444678791072 256.7567596073311 365.13558104446895 269.94665604847563L365.13558104446895 269.94665604847563Q365.13558104446895 275.980332080063 362.89049228852946 282.29464420614283Q360.5752445089669 288.60895633222276 358.0495196585349 294.15151919844834L358.0495196585349 294.15151919844834Q356.57618016244965 297.16835721424206 353.7698192175252 298.43121963945805Q350.96345827260086 299.69408206467403 350.96345827260086 297.7296294032269L350.96345827260086 297.7296294032269Q350.96345827260086 295.6950177181568 351.5247304615857 293.16929286772483Q352.01584362694746 290.64356801729286 352.01584362694746 288.60895633222276L352.01584362694746 288.60895633222276Q352.01584362694746 280.04955545020334 348.99900561115385 273.45460722963105L348.99900561115385 273.45460722963105Q346.4732807607219 266.36854584369706 341.421831059858 263.0710717334109Q336.3703813589941 259.8437566467479 330.7576594691454 259.8437566467479L330.7576594691454 259.8437566467479Q322.6893717524878 259.8437566467479 315.112197201192 266.15806877282773Q307.5350226498962 272.47238089890755 307.5350226498962 282.5752803006353L307.5350226498962 282.5752803006353Q307.5350226498962 283.5575066313588 307.5350226498962 285.1010051510673Q307.5350226498962 286.57434464715254 308.02613581525793 287.62673000149914L308.02613581525793 287.62673000149914Q310.06074750032815 295.6950177181568 320.16364690205586 305.79791711988446Q330.26654630378357 315.9008165216122 335.80910917000926 323.477991072908L335.80910917000926 323.477991072908Q345.4208954063752 336.5977284904295 345.4208954063752 350.20857907331276L345.4208954063752 350.20857907331276Q345.4208954063752 363.8895886798191 337.6332437842101 375.25535050676274Q329.7754331384218 386.6211123337065 316.8661727917697 393.42653762514806Q304.0270714687407 400.23196291658974 288.8727223661491 400.23196291658974Z " fill="white" transform="matrix(0.9168049621176321,0,0,0.916804962117632,0,1.8257151756702115)"/><path d="M585.7181579605306 286.2284975923766L585.7181579605306 286.2284975923766Q583.5549045509869 286.2284975923766 582.6030730507877 284.82238287617326L582.6030730507877 284.82238287617326Q581.9973620961155 284.0436116487375 581.9973620961155 282.78892467120215L581.9973620961155 282.78892467120215Q581.9973620961155 280.30118325022704 584.3336757784225 278.74364079535553L584.3336757784225 278.74364079535553Q586.0426459719621 277.8134418292518 587.4487606881654 277.8134418292518L587.4487606881654 277.8134418292518Q589.7850743704726 277.8134418292518 590.7152733365763 279.2195565454552L590.7152733365763 279.2195565454552Q591.3426168253441 279.9983277728909 591.3426168253441 281.23138221633076L591.3426168253441 281.23138221633076Q591.3426168253441 283.719123637306 588.8332428702734 285.2766660921774L588.8332428702734 285.2766660921774Q587.4487606881654 286.2284975923766 585.7181579605306 286.2284975923766ZM558.634225273044 346.1938821049266L558.634225273044 346.1938821049266Q557.0766828181726 346.1938821049266 556.059953715687 345.56653861615894Q555.0432246132016 344.9391951273914 555.0432246132016 343.2302249338519L555.0432246132016 343.2302249338519Q555.0432246132016 341.0453389902128 556.2113814543551 338.081681819138Q557.3795382955086 335.11802464806317 558.8505506139984 332.17600001108383Q560.3431954665834 329.212342840009 561.1219666940192 327.33031237370597L561.1219666940192 327.33031237370597Q562.203593398791 325.1670589641624 563.8476659900441 321.6625884407016Q565.4701060472019 318.15811791724093 566.9627508997871 314.9565028711163Q568.4337632182767 311.75488782499167 569.0611067070445 310.5218333815518L569.0611067070445 310.5218333815518Q566.8762207634053 312.85814706385895 563.8476659900441 316.36261758731973Q560.7974786825877 319.8670881107804 558.1583095229444 323.13360075919127Q555.5191403633012 326.40011340760225 554.1130256470977 328.28214387390517L554.1130256470977 328.28214387390517Q553.6371098969981 328.8878548285775 553.3342544196621 328.8878548285775L553.3342544196621 328.8878548285775Q553.0097664082305 328.8878548285775 553.0097664082305 328.1090836011417L553.0097664082305 328.1090836011417Q553.0097664082305 326.87602915770185 553.7885376356662 325.77276991883457L553.7885376356662 325.77276991883457Q556.752194806741 322.0519740544195 560.4080930688698 317.3793466898052Q564.085623865094 312.7067193251909 567.0276485020734 308.7263330516306Q569.9913056731482 304.7459467780702 570.770076900584 303.51289233463035L570.770076900584 303.51289233463035Q572.4790470941234 303.1884043231988 575.832089878916 302.58269336852663Q579.1851326637087 301.95534987975896 580.439819641244 300.8520906408917L580.439819641244 300.8520906408917Q580.8941028572482 300.39780742488756 581.3700186073478 300.39780742488756L581.3700186073478 300.39780742488756Q581.6728740846838 300.39780742488756 581.7594042210656 300.9386207772734Q581.824301823352 301.47943412965935 581.3700186073478 302.10677761842703L581.3700186073478 302.10677761842703Q580.439819641244 303.1884043231988 578.1035059589369 307.406748471809Q575.7671922766297 311.6034600863237 573.1929207192727 316.66547306465577Q570.6186491619158 321.72748604298795 568.4337632182767 325.77276991883457L568.4337632182767 325.77276991883457Q566.2488772746376 329.99111406744476 564.6913348197662 333.8849702046233Q563.1337923648948 337.77882634180185 563.1337923648948 339.4877965353413L563.1337923648948 339.4877965353413Q563.1337923648948 341.6726824789804 565.3186783085339 341.6726824789804L565.3186783085339 341.6726824789804Q567.3521365135049 341.6726824789804 570.532119025534 339.18494105800517Q573.7337340716587 336.67556710293456 577.0002467200695 333.1710965794739Q580.2667593684805 329.6666260560131 582.7761333235512 326.7246014190338L582.7761333235512 326.7246014190338Q583.5549045509869 325.77276991883457 584.7230613921404 324.453185339013Q585.891218233294 323.13360075919127 586.1940737106302 322.83074528185523L586.1940737106302 322.83074528185523Q586.4969291879662 323.13360075919127 586.4969291879662 323.912371986627L586.4969291879662 323.912371986627Q586.3455014492981 324.9939986913988 585.7181579605306 326.01072779388437Q585.1124470058583 327.0274568963699 584.4851035170907 327.80622812380557L584.4851035170907 327.80622812380557Q581.2185908686797 331.8515119996523 577.3247347315012 336.1347537505486Q573.4308785943226 340.41799550144515 568.7582512297083 343.29512253613814Q564.085623865094 346.1938821049266 558.634225273044 346.1938821049266ZM619.832664229034 346.02082183216316L619.832664229034 346.02082183216316Q615.1600368644197 346.02082183216316 613.4510666708802 343.77103828623774Q611.7420964773406 341.5212547403123 611.7420964773406 338.23310955780596L611.7420964773406 338.23310955780596Q611.7420964773406 333.8849702046233 613.6890245459299 328.8878548285775Q615.6359526145193 323.912371986627 616.8690070579592 321.10014255422027L616.8690070579592 321.10014255422027Q614.8571813870835 323.28502849785934 612.9751509207806 325.31848670283046Q611.114752988573 327.33031237370597 610.3359817611373 328.28214387390517L610.3359817611373 328.28214387390517Q609.8600660110377 328.8878548285775 609.5572105337016 328.8878548285775L609.5572105337016 328.8878548285775Q609.2543550563655 328.8878548285775 609.2543550563655 328.1090836011417L609.2543550563655 328.1090836011417Q609.2543550563655 326.87602915770185 610.0331262838012 325.77276991883457L610.0331262838012 325.77276991883457Q612.1963796933449 322.9821730205233 615.0086091257516 319.8670881107804Q617.8208385581584 316.7520032010375 620.4600077178015 313.3124302798632L620.4600077178015 313.3124302798632Q623.5750926275444 307.558176210477 627.3824186283413 299.8569940725016Q631.2113771632335 292.13417940043075 635.3431911754619 283.9570815123558Q639.4533726535949 275.7799836242808 643.4337589271552 268.8575727137411Q647.4141452007154 261.913529269106 650.5292301104583 257.7168176545913L650.5292301104583 257.7168176545913Q653.1683992701015 256.63519094981945 655.5912430887905 254.90458822218451Q657.9924543733839 253.19561802864504 660.4152981920728 251.72460571015534Q662.8165094766663 250.23196085757024 665.477311170405 250.23196085757024L665.477311170405 250.23196085757024Q667.1862813639444 250.23196085757024 668.0515827277619 251.18379235776942Q668.8952515574839 252.1139913238732 669.2197395689155 253.3470457673131L669.2197395689155 253.3470457673131Q669.3711673075836 253.82296151741272 669.3711673075836 255.07764849494802L669.3711673075836 255.07764849494802Q669.3711673075836 258.647016620695 666.9483234888946 263.7955597354089Q664.5471122043012 268.9224703160274 661.3454971581766 273.8330555556915Q658.143882112052 278.74364079535553 655.8075684297448 281.85872570509844L655.8075684297448 281.85872570509844Q649.5773986102591 290.57663694555936 643.0443733134373 297.67210812886253Q636.5113480166154 304.7459467780702 631.2762747655198 309.50510427906636Q626.0628340485196 314.2642617800624 623.7265203662125 316.42751518960597L623.7265203662125 316.42751518960597Q622.6448936614406 318.4609733945771 621.1522488088556 321.8140161793697Q619.6812364903658 325.1670589641624 618.599609785594 328.8229572262911Q617.4963505467267 332.47885548841987 617.4963505467267 335.5939403981628L617.4963505467267 335.5939403981628Q617.4963505467267 338.23310955780596 618.7510375242621 340.02860988772727Q619.9840919677019 341.82411021764847 622.9477491387768 341.82411021764847L622.9477491387768 341.82411021764847Q623.4236648888764 341.82411021764847 623.8779481048805 341.82411021764847Q624.3538638549801 341.82411021764847 624.9812073437479 341.6726824789804L624.9812073437479 341.6726824789804Q627.6203765033911 341.1967667288808 630.7354614131339 338.70902530790556Q633.8505463228768 336.22128388693045 636.9656312326197 332.95477123851947Q640.0807161423625 329.6666260560131 642.5684575633377 326.7246014190338L642.5684575633377 326.7246014190338Q643.671716802205 325.4699144414984 644.6019157683088 324.3017576003449Q645.5321147344125 323.13360075919127 645.856602745844 322.6576850090918L645.856602745844 322.6576850090918Q646.9382294506158 323.76094424795895 645.7700726094623 325.3833843051167Q644.6019157683088 327.0274568963699 643.823144540873 328.1090836011417L643.823144540873 328.1090836011417Q642.7415178361011 329.51519831734504 640.7080596311301 331.938042136034Q638.6746014261591 334.3392534206274 636.0354322665158 337.15148285303417L636.0354322665158 337.15148285303417Q633.0717750954411 340.115140024109 628.7236357422582 343.0787971951838Q624.3538638549801 346.02082183216316 619.832664229034 346.02082183216316ZM626.3873220599512 310.1973453701203L626.3873220599512 310.1973453701203Q631.2113771632335 306.15206149427365 638.6097038238728 298.60230709496625Q646.0080304845121 291.05255269565896 653.1683992701015 280.30118325022704L653.1683992701015 280.30118325022704Q653.9471704975373 279.0464962726917 655.7426708274586 276.10447163571234Q657.5381711573798 273.1408144646375 659.4850992259691 269.3118559297452Q661.4320272945583 265.5045299289484 662.8165094766663 261.84863166681964Q664.2226241928696 258.1927334046909 664.2226241928696 255.5319317109522L664.2226241928696 255.5319317109522Q664.2226241928696 253.04419028997697 662.8165094766663 253.04419028997697L662.8165094766663 253.04419028997697Q661.1075392831268 253.04419028997697 658.3169423848154 256.0078474610518L658.3169423848154 256.0078474610518Q655.0287972023092 259.42578784813077 650.9186157241762 266.04534328133434Q646.7868017119479 272.6648987145379 642.2656020860015 280.77709900032664Q637.7444024600554 288.8676667520199 633.612588447827 296.655379026377Q629.502406969694 304.4430913007342 626.3873220599512 310.1973453701203ZM645.3806869957444 346.02082183216316L645.3806869957444 346.02082183216316Q642.8929455747693 346.02082183216316 640.9460175061799 345.0257252637731Q638.9990894375907 344.00899616128754 638.9990894375907 340.5694232401131L638.9990894375907 340.5694232401131Q638.9990894375907 335.11802464806317 641.7896863359019 329.6017284537269Q644.6019157683088 324.0637997252951 647.5655729393835 319.8670881107804L647.5655729393835 319.8670881107804Q650.2047420990268 316.2760874509379 653.5577848838194 313.09610493890875Q656.9108276686121 309.8944898927841 660.8046838057907 307.558176210477L660.8046838057907 307.558176210477Q663.2924252267659 306.0006337556056 667.5756669776623 304.2051334256844Q671.8589087285587 302.4096330957632 674.8225658996336 302.4096330957632L674.8225658996336 302.4096330957632Q677.3103073206088 302.4096330957632 679.1707052528163 303.75085020968015Q681.0527357191193 305.07043478950186 681.0527357191193 308.4883751765808L681.0527357191193 308.4883751765808Q681.0527357191193 313.7883460299628 678.3270364230942 319.32627475839445Q675.6013371270693 324.84257095273085 672.6376799559945 329.0609151013409L672.6376799559945 329.0609151013409Q671.2315652397912 330.9213130335485 669.8254505235877 332.5653856248016Q668.4409683414798 334.18782568195934 666.7103656138448 335.8967958754988L666.7103656138448 335.8967958754988Q672.4862522173264 335.8967958754988 677.3103073206088 332.5653856248016Q682.134362423891 329.212342840009 685.7253630837336 324.3882877367266L685.7253630837336 324.3882877367266L686.0282185610697 324.0637997252951Q686.5041343111693 324.0637997252951 686.5041343111693 324.9939986913988L686.5041343111693 324.9939986913988Q686.5041343111693 326.0972579302661 685.8767908224016 327.0274568963699L685.8767908224016 327.0274568963699Q682.7617059126587 331.3972287836481 678.0890785480444 334.7286390343453Q673.4164511834302 338.081681819138 667.4891368412806 338.081681819138L667.4891368412806 338.081681819138Q666.8834258866084 338.081681819138 666.2560823978407 338.081681819138Q665.628738909073 338.081681819138 665.0013954203054 337.9302540804699L665.0013954203054 337.9302540804699Q656.2834841798444 346.02082183216316 645.3806869957444 346.02082183216316ZM649.4259708715911 343.38165267251986L649.4259708715911 343.38165267251986Q651.6108568152301 343.38165267251986 654.1851283725871 341.82411021764847Q656.759399929944 340.2665677627771 658.143882112052 338.86045304657364L658.143882112052 338.86045304657364Q660.8046838057907 336.22128388693045 662.9895697494297 333.1710965794739Q665.1528231589734 330.1425418061127 667.0348536252764 327.0274568963699L667.0348536252764 327.0274568963699Q669.2197395689155 323.28502849785934 671.3829929784591 318.15811791724093Q673.5678789220982 313.009574802527 673.5678789220982 308.4883751765808L673.5678789220982 308.4883751765808Q673.5678789220982 304.9190070508338 671.0801375011231 304.9190070508338L671.0801375011231 304.9190070508338Q669.046679296152 304.9190070508338 666.169552261459 306.62797724437326Q663.2924252267659 308.3369474379127 661.8863105105626 309.74306215411616L661.8863105105626 309.74306215411616Q656.5863396571806 315.1944607461661 653.0169715314336 321.5760583043199L653.0169715314336 321.5760583043199Q650.9835133264625 325.1670589641624 648.6471996441553 329.99111406744476Q646.3108859618483 334.815169170727 646.3108859618483 338.86045304657364L646.3108859618483 338.86045304657364Q646.3108859618483 339.4877965353413 646.39741609823 340.02860988772727Q646.4623137005162 340.5694232401131 646.6353739732798 341.1967667288808L646.6353739732798 341.1967667288808Q647.241084927952 343.38165267251986 649.4259708715911 343.38165267251986ZM696.9310157451697 346.64816532093084L696.9310157451697 346.64816532093084Q694.7461298015306 346.64816532093084 693.1885873466591 345.09062286605933Q691.6310448917877 343.53308041118794 691.6310448917877 339.6392242740094L691.6310448917877 339.6392242740094Q691.6310448917877 336.22128388693045 692.193490778269 331.54865652231615Q692.734304130655 326.87602915770185 693.8159308354268 321.96544391803775Q694.9191900742941 317.05485867837365 696.303672256402 313.3124302798632L696.303672256402 313.3124302798632Q693.6645030967587 317.2062864170417 690.3979904483479 321.33810042927007Q687.131477799937 325.4699144414984 684.9465918562979 328.28214387390517L684.9465918562979 328.28214387390517Q684.4706761061982 328.8878548285775 684.1678206288622 328.8878548285775L684.1678206288622 328.8878548285775Q683.8433326174305 328.8878548285775 683.8433326174305 328.1090836011417L683.8433326174305 328.1090836011417Q683.8433326174305 326.87602915770185 684.6221038448663 325.77276991883457L684.6221038448663 325.77276991883457Q687.9102490273726 321.2732028269837 692.0204305055056 315.49731622350225Q696.152244517734 309.74306215411616 699.1159016888088 305.07043478950186L699.1159016888088 305.07043478950186Q700.8248718823482 304.7459467780702 703.2477157010371 304.14023582339803Q705.6489269856306 303.51289233463035 706.7521862244979 302.4096330957632L706.7521862244979 302.4096330957632Q707.5309574519335 301.95534987975896 707.6823851906016 301.95534987975896L707.6823851906016 301.95534987975896Q708.1583009407012 301.95534987975896 708.1583009407012 302.4961632321449Q708.1583009407012 303.03697658453075 707.6823851906016 303.6643200732984L707.6823851906016 303.6643200732984Q706.2762704743983 305.6977782782694 704.6538304172406 309.8944898927841Q703.0097578259873 314.0912015072988 701.3656852347342 319.2397446220127Q699.7432451775765 324.3882877367266 698.7265160750909 329.27724044229524Q697.7097869726055 334.18782568195934 697.7097869726055 337.62739860313377L697.7097869726055 337.62739860313377Q697.7097869726055 340.115140024109 698.4885582000411 341.13186912659455Q699.2673294274769 342.1269656949846 700.5220164050121 342.1269656949846L700.5220164050121 342.1269656949846Q702.2309865985517 342.1269656949846 704.6538304172406 340.41799550144515Q707.055041701834 338.70902530790556 708.7640118953734 336.84862737569813L708.7640118953734 336.84862737569813Q710.9488978390126 334.512313693391 713.6745971350375 330.6184575562123Q716.4002964310625 326.7246014190338 718.8231402497514 322.3548295317556Q721.2243515343449 317.9850576444775 722.4790385118803 314.41568951873035L722.4790385118803 314.41568951873035Q723.409237477984 311.92794809775523 723.7337254894155 310.1324477678339Q724.0365809667517 308.3369474379127 724.0365809667517 307.25532073314093L724.0365809667517 307.25532073314093Q724.0365809667517 305.3732902668379 723.5606652166521 304.59451903940226Q723.1063820006478 303.8157478119665 722.7818939892163 303.6643200732984L722.7818939892163 303.6643200732984Q721.8516950231125 303.3614645959624 721.8516950231125 302.8855488458628L721.8516950231125 302.8855488458628Q721.8516950231125 302.58269336852663 722.4790385118803 302.34473549347683Q723.1063820006478 302.10677761842703 723.7337254894155 302.4096330957632L723.7337254894155 302.4096330957632Q725.7455511602911 303.03697658453075 727.7790093652621 304.2051334256844Q729.7908350361378 305.3732902668379 729.7908350361378 308.6398029152489L729.7908350361378 308.6398029152489Q729.7908350361378 309.4185741426845 729.6394072974698 310.4353032451701Q729.4879795588016 311.45203234765563 729.012063808702 312.7067193251909L729.012063808702 312.7067193251909Q728.0818648425983 315.1944607461661 725.2047378079052 319.7156603721123Q722.3276107732121 324.2152274639632 718.5851823747016 329.212342840009Q714.8427539761911 334.18782568195934 711.1003255776806 338.23310955780596Q707.3795297132655 342.30002596774807 704.5673002808588 344.00899616128754L704.5673002808588 344.00899616128754Q702.7069023486512 345.09062286605933 700.6734441436803 345.8693940934951Q698.6399859387092 346.64816532093084 696.9310157451697 346.64816532093084ZM738.8332342880302 346.97265333236237L738.8332342880302 346.97265333236237Q732.4516367298764 346.97265333236237 729.9638953089012 344.46327937729177Q727.4545213538306 341.97553795631654 727.4545213538306 338.4061698305695L727.4545213538306 338.4061698305695Q727.4545213538306 333.8849702046233 729.8773651725195 328.7364270899094Q732.3002089912085 323.60951650929087 734.4634624007521 320.0185158494485L734.4634624007521 320.0185158494485Q736.9728363558227 316.2760874509379 741.1695479703374 312.2308035750913Q745.3662595848521 308.18551969924465 750.3633749608979 305.3732902668379Q755.3388578028483 302.58269336852663 760.0114851674626 302.58269336852663L760.0114851674626 302.58269336852663Q764.0567690433091 302.58269336852663 765.6143114981807 304.5296214371159Q767.171853953052 306.4765495057052 767.171853953052 309.1157186653485L767.171853953052 309.1157186653485Q767.171853953052 313.93977376863074 764.2947269183591 317.05485867837365Q761.417599883666 320.16994358811655 757.2208882691513 322.1168716567058Q753.0025441205412 324.0637997252951 749.1086879833625 325.31848670283046L749.1086879833625 325.31848670283046Q746.7723743010555 325.945830191598 743.6572893913126 326.5515411462703Q740.5422044815697 327.178884635038 737.7516075832584 327.178884635038L737.7516075832584 327.178884635038Q736.6483483443911 329.99111406744476 736.0210048556236 332.63028322708794Q735.4152939009513 335.2910849208266 735.4152939009513 337.4543383303703L735.4152939009513 337.4543383303703Q735.4152939009513 340.115140024109 736.7348784807729 341.82411021764847Q738.0544630605945 343.53308041118794 741.1695479703374 343.53308041118794L741.1695479703374 343.53308041118794Q742.4242349478727 343.53308041118794 744.1332051414122 343.2302249338519Q745.8421753349517 342.90573692242026 747.8756335399227 342.30002596774807L747.8756335399227 342.30002596774807Q752.548260904537 340.7424835128767 757.0478279963878 337.30291059170224Q761.569027622334 333.8849702046233 765.3979861572262 329.9045839310629Q769.205312158023 325.945830191598 771.2387703629942 323.28502849785934L771.2387703629942 323.28502849785934Q771.6930535789983 323.76094424795895 771.6930535789983 324.3882877367266L771.6930535789983 324.3882877367266Q771.6930535789983 325.1670589641624 770.6114268742265 326.87602915770185L770.6114268742265 326.87602915770185Q767.4963419644837 331.2241685108846 762.4992265884379 335.8967958754988Q757.5237437464874 340.5694232401131 751.4450016656698 343.77103828623774Q745.3662595848521 346.97265333236237 738.8332342880302 346.97265333236237ZM738.9846620266983 324.0637997252951L738.9846620266983 324.0637997252951Q741.0181202316693 324.2152274639632 743.5923917890262 323.99890212300875Q746.1450308122878 323.76094424795895 748.6544047673584 322.9821730205233L748.6544047673584 322.9821730205233Q755.0360023255122 321.10014255422027 757.9131293602053 316.9899610760873Q760.7902563948983 312.85814706385895 760.7902563948983 309.5916344154481L760.7902563948983 309.5916344154481Q760.7902563948983 307.70960394914505 760.0114851674626 306.4765495057052Q759.2327139400269 305.2218625281698 757.5237437464874 305.2218625281698L757.5237437464874 305.2218625281698Q753.0025441205412 305.2218625281698 749.4331759947942 308.5749053129625Q745.8421753349517 311.92794809775523 743.2030061753084 316.2760874509379Q740.5422044815697 320.64585933821616 738.9846620266983 324.0637997252951ZM779.0264826373513 400.2319522753271L779.0264826373513 400.2319522753271Q773.0991682952017 400.2319522753271 767.5612395667699 397.5062529793021Q762.0449433724336 394.78055368327705 759.384141678695 389.17772735255903L759.384141678695 389.17772735255903Q758.4539427125911 387.14426914758803 758.151087235255 384.8944856016626Q757.8265992238236 382.6230695216417 757.8265992238236 380.4598161120981L757.8265992238236 380.4598161120981L757.8265992238236 378.72921338446315Q757.8265992238236 377.4961589410233 758.151087235255 376.47942983853784Q758.4539427125911 375.4627007360523 759.7086296901265 375.4627007360523L759.7086296901265 375.4627007360523Q760.0114851674626 375.4627007360523 760.0114851674626 375.7871887474838L760.0114851674626 375.7871887474838Q760.0114851674626 376.71738771358764 759.8600574287946 377.64758667969136Q759.7086296901265 378.5777856457951 759.7086296901265 379.68104488466236L759.7086296901265 379.68104488466236Q759.7086296901265 386.8414136702519 764.2947269183591 390.58384206876235Q768.902456680687 394.30463793317745 775.738337454845 394.30463793317745L775.738337454845 394.30463793317745Q778.5505668872516 394.30463793317745 781.5142240583265 393.69892697850526Q784.4778812294013 393.0715834897376 787.1170503890445 391.9683242508703L787.1170503890445 391.9683242508703Q796.9382208683727 387.7716126363556 804.1634872562486 380.07043049838023Q811.4103861782197 372.3476158263094 816.8617847702698 362.69950561974474Q822.3131833623198 353.0297628790846 826.682955249598 343.0787971951838L826.682955249598 343.0787971951838Q829.1706966705732 337.15148285303417 831.1176247391625 331.54865652231615Q833.0645528077517 325.945830191598 834.6220952626231 321.4246305656518L834.6220952626231 321.4246305656518Q833.0645528077517 323.60951650929087 830.5768113867765 326.7246014190338Q828.0890699658013 329.8396863287767 825.5796960107307 332.71681336346967Q823.0919545897556 335.5939403981628 821.2315566575479 337.30291059170224L821.2315566575479 337.30291059170224Q817.3377005203694 341.0453389902128 812.9030310308049 343.61961054756966Q808.4467290071449 346.1938821049266 803.7741016425307 346.1938821049266L803.7741016425307 346.1938821049266Q802.2165591876593 346.1938821049266 801.1349324828874 345.56653861615894Q800.0533057781156 344.9391951273914 800.0533057781156 343.2302249338519L800.0533057781156 343.2302249338519Q800.0533057781156 341.0453389902128 801.2214626192692 338.081681819138Q802.3896194604228 335.11802464806317 803.7741016425307 332.17600001108383Q805.1802163587341 329.212342840009 806.1104153248378 327.33031237370597L806.1104153248378 327.33031237370597Q807.9924457911408 323.76094424795895 809.7014159846802 320.16994358811655Q811.4103861782197 316.60057546236953 812.6650731557551 314.0912015072988L812.6650731557551 314.0912015072988Q813.8981275991949 311.75488782499167 813.8981275991949 310.97611659755603L813.8981275991949 310.97611659755603Q813.8981275991949 309.74306215411616 812.1242598033692 310.97611659755603Q810.3287594734479 312.2308035750913 808.7712170185765 313.48549055262663L808.7712170185765 313.48549055262663Q805.3316440974021 316.7520032010375 801.610848232987 321.186672690602Q797.8684198344765 325.6213421801665 795.8349616295054 328.28214387390517L795.8349616295054 328.28214387390517Q795.3806784135013 328.8878548285775 795.0561904020698 328.8878548285775L795.0561904020698 328.8878548285775Q794.7533349247336 328.8878548285775 794.7533349247336 328.1090836011417L794.7533349247336 328.1090836011417Q794.7533349247336 326.87602915770185 795.5321061521694 325.77276991883457L795.5321061521694 325.77276991883457Q797.7169920958085 322.6576850090918 800.6590167327878 318.9368891446767Q803.6226739038626 315.1944607461661 806.7377588136055 311.75488782499167L806.7377588136055 311.75488782499167Q809.7014159846802 308.6398029152489 812.8165008944231 305.6977782782694Q815.931585804166 302.7341211071947 820.7556409074483 302.7341211071947L820.7556409074483 302.7341211071947Q824.0221535558593 302.7341211071947 824.0221535558593 305.2218625281698L824.0221535558593 305.2218625281698Q824.0221535558593 307.406748471809 822.1617556236517 310.1973453701203L822.1617556236517 310.1973453701203Q821.08012891888 311.92794809775523 818.7438152365727 315.97323197360186Q816.4075015542657 320.0185158494485 813.9846577355767 324.7776733504445Q811.5618139168878 329.51519831734504 809.8528437233484 333.5604821931918Q808.1438735298088 337.62739860313377 808.1438735298088 339.4877965353413L808.1438735298088 339.4877965353413Q808.1438735298088 341.6726824789804 810.3287594734479 341.6726824789804L810.3287594734479 341.6726824789804Q812.0377296669875 341.6726824789804 814.5254710879626 339.8771821490592Q817.0132125089378 338.081681819138 819.6740142026765 335.5939403981628L819.6740142026765 335.5939403981628Q824.1952138286227 331.2241685108846 828.0025398294196 325.945830191598Q831.8098658302164 320.64585933821616 834.6220952626231 315.8218042349338L834.6220952626231 315.8218042349338Q835.0980110127227 315.043033007498 836.2661678538764 313.009574802527Q837.4343246950299 310.97611659755603 838.7539092748515 309.1157186653485Q840.0734938546731 307.25532073314093 840.8522650821088 306.9308327217094L840.8522650821088 306.9308327217094Q841.6310363095446 306.62797724437326 843.9673499918517 305.2218625281698Q846.3036636741589 303.8157478119665 848.639977356466 303.3614645959624L848.639977356466 303.3614645959624Q850.8248633001051 302.8855488458628 851.9064900048769 302.8855488458628L851.9064900048769 302.8855488458628Q853.6154601984164 302.8855488458628 853.6154601984164 303.8157478119665L853.6154601984164 303.8157478119665Q853.6154601984164 305.07043478950186 852.2309780163085 305.07043478950186L852.2309780163085 305.07043478950186Q850.5003752886736 305.07043478950186 849.1158931065657 305.91410361922385Q847.7097783903622 306.77940498304133 846.9310071629264 308.0340919605766L846.9310071629264 308.0340919605766Q845.5248924467231 310.0459176314522 842.9506208893663 315.3458884848342Q840.3763493320092 320.64585933821616 837.3477945586482 327.56827024875577Q834.3192397852871 334.512313693391 831.3555826142123 341.58615234259867Q828.3919254431374 348.68162352590184 825.9041840221622 354.587305333956L825.9041840221622 354.587305333956Q822.1617556236517 363.4782768471804 817.3377005203694 371.9582302125915Q812.5136454170871 380.4598161120981 806.0455177225515 387.23079928396976Q799.577390028016 394.0017824558413 790.708051048887 397.89563859301995L790.708051048887 397.89563859301995Q785.408080195505 400.2319522753271 779.0264826373513 400.2319522753271ZM851.1277187774413 346.02082183216316L851.1277187774413 346.02082183216316Q848.639977356466 346.02082183216316 846.6930492878768 345.0257252637731Q844.7461212192874 344.00899616128754 844.7461212192874 340.5694232401131L844.7461212192874 340.5694232401131Q844.7461212192874 335.11802464806317 847.5583506516942 329.6017284537269Q850.3489475500055 324.0637997252951 853.3126047210803 319.8670881107804L853.3126047210803 319.8670881107804Q855.9517738807236 316.2760874509379 859.3048166655162 313.09610493890875Q862.6578594503088 309.8944898927841 866.5517155874875 307.558176210477L866.5517155874875 307.558176210477Q869.0394570084626 306.0006337556056 873.3226987593591 304.2051334256844Q877.6059405102556 302.4096330957632 880.5695976813303 302.4096330957632L880.5695976813303 302.4096330957632Q883.0573391023055 302.4096330957632 884.9393695686085 303.75085020968015Q886.7997675008161 305.07043478950186 886.7997675008161 308.4883751765808L886.7997675008161 308.4883751765808Q886.7997675008161 313.7883460299628 884.074068204791 319.32627475839445Q881.348368908766 324.84257095273085 878.3847117376912 329.0609151013409L878.3847117376912 329.0609151013409Q876.9785970214879 330.9213130335485 875.5941148393799 332.5653856248016Q874.1880001231766 334.18782568195934 872.479029929637 335.8967958754988L872.479029929637 335.8967958754988Q878.2332839990232 335.8967958754988 883.0573391023055 332.5653856248016Q887.8813942055879 329.212342840009 891.4723948654304 324.3882877367266L891.4723948654304 324.3882877367266L891.7752503427665 324.0637997252951Q892.2511660928661 324.0637997252951 892.2511660928661 324.9939986913988L892.2511660928661 324.9939986913988Q892.2511660928661 326.0972579302661 891.6238226040985 327.0274568963699L891.6238226040985 327.0274568963699Q888.5087376943555 331.3972287836481 883.8361103297412 334.7286390343453Q879.163482965127 338.081681819138 873.2578011570728 338.081681819138L873.2578011570728 338.081681819138Q872.6304576683052 338.081681819138 872.0031141795374 338.081681819138Q871.3757706907699 338.081681819138 870.7484272020022 337.9302540804699L870.7484272020022 337.9302540804699Q862.0305159615413 346.02082183216316 851.1277187774413 346.02082183216316ZM855.1730026532879 343.38165267251986L855.1730026532879 343.38165267251986Q857.357888596927 343.38165267251986 859.9321601542839 341.82411021764847Q862.5064317116409 340.2665677627771 863.9125464278442 338.86045304657364L863.9125464278442 338.86045304657364Q866.5517155874875 336.22128388693045 868.7366015311266 333.1710965794739Q870.9214874747656 330.1425418061127 872.7818854069732 327.0274568963699L872.7818854069732 327.0274568963699Q874.9667713506122 323.28502849785934 877.1516572942513 318.15811791724093Q879.314910703795 313.009574802527 879.314910703795 308.4883751765808L879.314910703795 308.4883751765808Q879.314910703795 304.9190070508338 876.8271692828199 304.9190070508338L876.8271692828199 304.9190070508338Q874.8153436119443 304.9190070508338 871.9165840431557 306.62797724437326Q869.0394570084626 308.3369474379127 867.6333422922593 309.74306215411616L867.6333422922593 309.74306215411616Q862.3550039729728 315.1944607461661 858.7640033131303 321.5760583043199L858.7640033131303 321.5760583043199Q856.7305451081593 325.1670589641624 854.3942314258521 329.99111406744476Q852.057917743545 334.815169170727 852.057917743545 338.86045304657364L852.057917743545 338.86045304657364Q852.057917743545 339.4877965353413 852.1444478799268 340.02860988772727Q852.2309780163085 340.5694232401131 852.3824057549765 341.1967667288808L852.3824057549765 341.1967667288808Q853.0097492437442 343.38165267251986 855.1730026532879 343.38165267251986ZM898.6327636510199 346.1938821049266L898.6327636510199 346.1938821049266Q897.0752211961484 346.1938821049266 895.9935944913766 345.56653861615894Q894.8903352525093 344.9391951273914 894.8903352525093 343.2302249338519L894.8903352525093 343.2302249338519Q894.8903352525093 341.0453389902128 896.058492093663 338.081681819138Q897.2266489348165 335.11802464806317 898.6327636510199 332.17600001108383Q900.0388783672232 329.212342840009 900.9690773333269 327.33031237370597L900.9690773333269 327.33031237370597Q902.8511077996301 323.76094424795895 904.5600779931694 320.16994358811655Q906.2690481867089 316.60057546236953 907.5237351642443 314.0912015072988L907.5237351642443 314.0912015072988Q908.7567896076841 311.75488782499167 908.7567896076841 310.97611659755603L908.7567896076841 310.97611659755603Q908.7567896076841 309.74306215411616 906.9612892777628 310.97611659755603Q905.1874214819371 312.2308035750913 903.6298790270656 313.48549055262663L903.6298790270656 313.48549055262663Q900.1903061058913 316.7520032010375 896.4478777073808 321.186672690602Q892.7270818429657 325.6213421801665 890.6936236379946 328.28214387390517L890.6936236379946 328.28214387390517Q890.217707887895 328.8878548285775 889.9148524105589 328.8878548285775L889.9148524105589 328.8878548285775Q889.6119969332228 328.8878548285775 889.6119969332228 328.1090836011417L889.6119969332228 328.1090836011417Q889.6119969332228 326.87602915770185 890.3907681606585 325.77276991883457L890.3907681606585 325.77276991883457Q892.5540215702022 322.6576850090918 895.5176787412769 318.9368891446767Q898.4813359123517 315.1944607461661 901.5964208220947 311.75488782499167L901.5964208220947 311.75488782499167Q904.5600779931694 308.6398029152489 907.6751629029123 305.6977782782694Q910.7902478126551 302.7341211071947 915.6143029159375 302.7341211071947L915.6143029159375 302.7341211071947Q918.8808155643484 302.7341211071947 918.8808155643484 305.2218625281698L918.8808155643484 305.2218625281698Q918.8808155643484 307.406748471809 917.020417632141 310.1973453701203L917.020417632141 310.1973453701203Q915.9171583932737 311.92794809775523 913.5808447109665 315.97323197360186Q911.2445310286594 320.0185158494485 908.8433197440659 324.7776733504445Q906.420475925377 329.51519831734504 904.7115057318375 333.5604821931918Q903.002535538298 337.62739860313377 903.002535538298 339.4877965353413L903.002535538298 339.4877965353413Q903.002535538298 341.6726824789804 905.1874214819371 341.6726824789804L905.1874214819371 341.6726824789804Q906.8963916754766 341.6726824789804 909.3841330964518 339.8771821490592Q911.8718745174269 338.081681819138 914.5326762111657 335.5939403981628L914.5326762111657 335.5939403981628Q919.356731314448 330.9213130335485 923.315485053913 325.3833843051167Q927.2958713274733 319.8670881107804 930.1729983621664 314.7185449960665Q933.0501253968592 309.5916344154481 934.7807281244943 306.30348923294173L934.7807281244943 306.30348923294173Q935.0835836018304 305.6977782782694 935.4729692155482 304.83247691445206Q935.8623548292661 303.9671755506346 936.7925537953698 303.8157478119665L936.7925537953698 303.8157478119665Q937.7227527614735 303.6643200732984 940.8378376712166 303.6643200732984Q943.9529225809594 303.6643200732984 946.613724274698 302.4096330957632L946.613724274698 302.4096330957632L946.9165797520342 302.4096330957632Q947.3924955021338 302.4096330957632 947.3924955021338 302.8855488458628L947.3924955021338 302.8855488458628Q947.3924955021338 304.14023582339803 945.3590372971627 304.7459467780702L945.3590372971627 304.7459467780702Q943.4986393649552 305.3732902668379 941.0757955462662 308.4883751765808Q938.674584261673 311.6034600863237 936.3382705793657 316.0381295758881Q934.0019568970584 320.4944315995481 932.1199264307555 325.1670589641624Q930.2595284985481 329.8396863287767 929.3293295324441 333.7335424659552Q928.3774980322451 337.62739860313377 928.8534137823447 339.4877965353413L928.8534137823447 339.4877965353413Q929.4807572711123 341.6726824789804 931.0382997259838 341.6726824789804L931.0382997259838 341.6726824789804Q933.0501253968592 341.6726824789804 936.7276561930836 339.18494105800517Q940.3835544552123 336.67556710293456 944.2774105923909 333.1710965794739Q948.1712667295695 329.6666260560131 950.6590081505448 326.7246014190338L950.6590081505448 326.7246014190338Q951.7406348553164 325.4699144414984 952.6924663555158 324.2152274639632Q953.6226653216195 322.9821730205233 953.9255207989556 322.6576850090918L953.9255207989556 322.6576850090918Q954.0769485376237 322.83074528185523 954.2500088103872 323.2201308955731Q954.4014365490551 323.60951650929087 954.4014365490551 323.912371986627L954.4014365490551 323.912371986627Q954.2500088103872 324.9939986913988 953.6226653216195 326.01072779388437Q952.9953218328518 327.0274568963699 952.216550605416 327.80622812380557L952.216550605416 327.80622812380557Q949.2528934343412 331.7000842609841 945.121079422113 335.98332601188065Q941.01089794398 340.2665677627771 936.251740442984 343.2302249338519Q931.492582941988 346.1938821049266 926.5171001000375 346.1938821049266L926.5171001000375 346.1938821049266Q924.9595576451661 346.1938821049266 923.0126295765768 345.415110877491Q921.0657015079875 344.6363396500552 921.0657015079875 341.97553795631654L921.0657015079875 341.97553795631654Q921.0657015079875 339.9637122854409 922.1473282127594 336.45924176198025Q923.2505874516265 332.95477123851947 924.5701720314481 329.4503007150588Q925.88975661127 325.945830191598 926.8199555773737 324.2152274639632L926.8199555773737 324.2152274639632Q924.808129906498 327.178884635038 921.9310028718049 330.83478289716675Q919.0322433030165 334.512313693391 916.0902186660371 337.30291059170224L916.0902186660371 337.30291059170224Q912.1963625288586 341.0453389902128 907.7400605051986 343.61961054756966Q903.3053910156342 346.1938821049266 898.6327636510199 346.1938821049266Z " fill="yellow" transform="matrix(0.9168049621176321,0,0,0.916804962117632,0,1.8257151756702115)"/></g></svg>